<svg width="24" height="24" viewBox="0 0 24 24" fill="none" xmlns="http://www.w3.org/2000/svg">
<path d="M14 4C13.4477 4 13 4.44772 13 5C13 5.55228 13.4477 6 14 6H16.5858L10.7929 11.7929C10.4024 12.1834 10.4024 12.8166 10.7929 13.2071C11.1834 13.5976 11.8166 13.5976 12.2071 13.2071L18 7.41421V10C18 10.5523 18.4477 11 19 11C19.5523 11 20 10.5523 20 10V4H14Z" fill="#6A6969"/>
<path d="M19 18V15C19 14.4477 18.5523 14 18 14C17.4477 14 17 14.4477 17 15V18H6V7H9C9.55228 7 10 6.55228 10 6C10 5.44772 9.55228 5 9 5H6C4.89543 5 4 5.89543 4 7V18C4 19.1046 4.89543 20 6 20H17C18.1046 20 19 19.1046 19 18Z" fill="#6A6969"/>
</svg>
