<svg width="97" height="64" viewBox="0 0 97 64" fill="none" xmlns="http://www.w3.org/2000/svg">
<path d="M20.3971 34.9382V30.3055H11.5135L20.3971 25.3673V21.2436H1.48438V25.6473H10.3426L1.50983 30.7891V34.9382H20.3971Z" fill="white"/>
<path d="M29.9738 16H21.752V20.3018H29.9738V16ZM29.9738 21.2436H21.752V34.9382H29.9738V21.2436Z" fill="white"/>
<path d="M44.1436 35.32C54.1472 35.32 55.1145 30.8909 55.1145 28.2182V27.8109C55.1145 25.1891 54.1472 20.8618 44.1945 20.8618H42.1581C32.4854 20.8618 31.2127 25.1891 31.2127 27.8109V28.2182C31.2127 30.8909 32.46 35.32 42.1836 35.32H44.1436ZM43.2018 24.96C46.1036 24.96 46.7654 26.6655 46.7654 27.9382V27.9636C46.7654 29.2873 46.1036 31.1964 43.2018 31.1964H43.1254C40.1727 31.1964 39.5618 29.3127 39.5618 27.9636V27.9382C39.5618 26.64 40.2236 24.96 43.1254 24.96H43.2018Z" fill="white"/>
<path d="M56.3294 34.9382H64.5512V28.6764C64.5512 27.0982 65.493 25.7745 67.6312 25.7745C69.8712 25.7745 70.5585 27.0727 70.5585 28.6255V34.9382H78.7803V26.0036C78.7803 24.2473 77.533 20.9382 72.0348 20.9382H71.8821C67.4021 20.9382 65.1366 23.1273 64.5257 23.7382V21.2436H56.3294V34.9382Z" fill="white"/>
<path d="M0.972656 44.9092V45.0285C0.972656 45.4717 1.02947 45.8846 1.14311 46.2672C1.25675 46.646 1.41773 46.9736 1.62607 47.2501C1.8344 47.5304 2.08819 47.7501 2.38743 47.9092C2.68667 48.0645 3.02379 48.1422 3.39879 48.1422C3.75485 48.1422 4.06925 48.0778 4.34197 47.949C4.6147 47.8164 4.84955 47.6289 5.04652 47.3865L5.10902 48.0285H6.34197V39.3013H4.98402V42.4547C4.78705 42.235 4.55978 42.0664 4.3022 41.949C4.04841 41.8278 3.75107 41.7672 3.41016 41.7672C3.03137 41.7672 2.69046 41.8448 2.38743 42.0001C2.08819 42.1516 1.8344 42.3657 1.62607 42.6422C1.41394 42.9187 1.25107 43.2501 1.13743 43.6365C1.02758 44.0191 0.972656 44.4433 0.972656 44.9092ZM2.33061 45.0285V44.9092C2.33061 44.6327 2.35713 44.3732 2.41016 44.1308C2.46319 43.8846 2.54841 43.6687 2.66584 43.4831C2.77569 43.2975 2.91963 43.1516 3.09766 43.0456C3.27947 42.9395 3.49728 42.8865 3.75107 42.8865C4.0541 42.8865 4.3041 42.9547 4.50107 43.091C4.70182 43.2236 4.86281 43.4035 4.98402 43.6308V46.2729C4.86281 46.5039 4.70182 46.6876 4.50107 46.824C4.30031 46.9566 4.04652 47.0229 3.7397 47.0229C3.4897 47.0229 3.27569 46.9717 3.09766 46.8695C2.91963 46.7634 2.77379 46.6176 2.66016 46.432C2.54652 46.2539 2.46319 46.0437 2.41016 45.8013C2.35713 45.5588 2.33061 45.3013 2.33061 45.0285Z" fill="white"/>
<path d="M11.0124 48.1422C11.6109 48.1422 12.1204 48.0248 12.5408 47.7899C12.9651 47.5551 13.2795 47.2899 13.484 46.9945L12.7567 46.2899C12.5674 46.5323 12.3268 46.7198 12.0352 46.8524C11.7435 46.9812 11.4291 47.0456 11.092 47.0456C10.8458 47.0456 10.6185 47.0039 10.4102 46.9206C10.2056 46.8373 10.0276 46.7198 9.87607 46.5683C9.72455 46.4244 9.60523 46.2615 9.51811 46.0797C9.43099 45.8979 9.3666 45.6725 9.32493 45.4035V45.3751H13.5863V44.7899C13.5863 44.3505 13.5276 43.9452 13.4102 43.574C13.2927 43.2028 13.1185 42.8827 12.8874 42.6138C12.6564 42.3486 12.3704 42.1422 12.0295 41.9945C11.6886 41.8429 11.2965 41.7672 10.8533 41.7672C10.4556 41.7672 10.0806 41.8429 9.72834 41.9945C9.37985 42.1422 9.07304 42.3543 8.80788 42.6308C8.54273 42.9073 8.3344 43.2407 8.18288 43.6308C8.03137 44.021 7.95561 44.4566 7.95561 44.9376V45.1706C7.95561 45.591 8.02758 45.9831 8.17152 46.3467C8.31925 46.7066 8.52758 47.0191 8.79652 47.2842C9.06546 47.5532 9.38743 47.7634 9.76243 47.9149C10.1412 48.0664 10.5579 48.1422 11.0124 48.1422ZM10.8477 42.8695C11.0749 42.8695 11.2738 42.9092 11.4442 42.9888C11.6185 43.0645 11.7624 43.1668 11.8761 43.2956C11.9935 43.4282 12.0844 43.5835 12.1488 43.7615C12.2132 43.9357 12.2454 44.1119 12.2454 44.2899V44.3808H9.35334C9.39501 44.146 9.4594 43.9357 9.54652 43.7501C9.63364 43.5645 9.7416 43.4054 9.87038 43.2729C9.99917 43.1441 10.145 43.0456 10.3079 42.9774C10.4746 42.9054 10.6545 42.8695 10.8477 42.8695Z" fill="white"/>
<path d="M17.1431 48.0285H18.342L20.7511 41.8808H19.342L17.8363 46.341L17.7454 46.7501L17.6545 46.341L16.1317 41.8808H14.7227L17.1431 48.0285Z" fill="white"/>
<path d="M24.9897 48.1422C25.5882 48.1422 26.0977 48.0248 26.5181 47.7899C26.9424 47.5551 27.2567 47.2899 27.4613 46.9945L26.734 46.2899C26.5446 46.5323 26.3041 46.7198 26.0124 46.8524C25.7208 46.9812 25.4064 47.0456 25.0692 47.0456C24.823 47.0456 24.5958 47.0039 24.3874 46.9206C24.1829 46.8373 24.0049 46.7198 23.8533 46.5683C23.7018 46.4244 23.5825 46.2615 23.4954 46.0797C23.4083 45.8979 23.3439 45.6725 23.3022 45.4035V45.3751H27.5636V44.7899C27.5636 44.3505 27.5049 43.9452 27.3874 43.574C27.27 43.2028 27.0958 42.8827 26.8647 42.6138C26.6336 42.3486 26.3477 42.1422 26.0067 41.9945C25.6658 41.8429 25.2738 41.7672 24.8306 41.7672C24.4329 41.7672 24.0579 41.8429 23.7056 41.9945C23.3571 42.1422 23.0503 42.3543 22.7852 42.6308C22.52 42.9073 22.3117 43.2407 22.1602 43.6308C22.0086 44.021 21.9329 44.4566 21.9329 44.9376V45.1706C21.9329 45.591 22.0049 45.9831 22.1488 46.3467C22.2965 46.7066 22.5049 47.0191 22.7738 47.2842C23.0427 47.5532 23.3647 47.7634 23.7397 47.9149C24.1185 48.0664 24.5352 48.1422 24.9897 48.1422ZM24.8249 42.8695C25.0522 42.8695 25.2511 42.9092 25.4215 42.9888C25.5958 43.0645 25.7397 43.1668 25.8533 43.2956C25.9708 43.4282 26.0617 43.5835 26.1261 43.7615C26.1905 43.9357 26.2227 44.1119 26.2227 44.2899V44.3808H23.3306C23.3723 44.146 23.4367 43.9357 23.5238 43.7501C23.6109 43.5645 23.7189 43.4054 23.8477 43.2729C23.9764 43.1441 24.1223 43.0456 24.2852 42.9774C24.4518 42.9054 24.6317 42.8695 24.8249 42.8695Z" fill="white"/>
<path d="M29.3704 39.3013V40.432H31.3136V46.9035H29.3704V48.0285H34.5465V46.9035H32.6829V39.3013H29.3704Z" fill="white"/>
<path d="M35.8477 44.8979V45.0172C35.8477 45.4679 35.9121 45.8827 36.0408 46.2615C36.1696 46.6403 36.3571 46.9698 36.6033 47.2501C36.8458 47.5304 37.145 47.7501 37.5011 47.9092C37.8571 48.0683 38.2605 48.1479 38.7113 48.1479C39.1583 48.1479 39.5579 48.0683 39.9102 47.9092C40.2662 47.7501 40.5655 47.5304 40.8079 47.2501C41.0503 46.9698 41.2359 46.6403 41.3647 46.2615C41.4935 45.8827 41.5579 45.4679 41.5579 45.0172V44.8979C41.5579 44.4509 41.4935 44.038 41.3647 43.6592C41.2359 43.2766 41.0503 42.9452 40.8079 42.6649C40.5617 42.3846 40.2605 42.1649 39.9045 42.0058C39.5522 41.8467 39.1507 41.7672 38.6999 41.7672C38.2492 41.7672 37.8477 41.8467 37.4954 42.0058C37.1431 42.1649 36.8458 42.3846 36.6033 42.6649C36.3571 42.9452 36.1696 43.2766 36.0408 43.6592C35.9121 44.038 35.8477 44.4509 35.8477 44.8979ZM37.2056 45.0172V44.8979C37.2056 44.6289 37.234 44.3713 37.2908 44.1251C37.3514 43.8789 37.4442 43.663 37.5692 43.4774C37.6905 43.2918 37.8439 43.1441 38.0295 43.0342C38.2189 42.9244 38.4424 42.8695 38.6999 42.8695C38.9613 42.8695 39.1848 42.9244 39.3704 43.0342C39.5598 43.1441 39.717 43.2918 39.842 43.4774C39.9594 43.663 40.0484 43.8789 40.109 44.1251C40.1696 44.3713 40.1999 44.6289 40.1999 44.8979V45.0172C40.1999 45.2937 40.1696 45.5551 40.109 45.8013C40.0522 46.0475 39.9632 46.2634 39.842 46.449C39.7208 46.6346 39.5655 46.7823 39.3761 46.8922C39.1867 46.9982 38.9651 47.0513 38.7113 47.0513C38.4499 47.0513 38.2246 46.9982 38.0352 46.8922C37.8458 46.7823 37.6905 46.6346 37.5692 46.449C37.4442 46.2634 37.3514 46.0475 37.2908 45.8013C37.234 45.5551 37.2056 45.2937 37.2056 45.0172Z" fill="white"/>
<path d="M43.0977 50.3922H44.4556V47.4717C44.5276 47.5513 44.6052 47.6251 44.6886 47.6933C44.7719 47.7615 44.859 47.8221 44.9499 47.8751C45.1052 47.9623 45.2738 48.0285 45.4556 48.074C45.6412 48.1195 45.8439 48.1422 46.0636 48.1422C46.4499 48.1422 46.7927 48.0626 47.092 47.9035C47.3912 47.7445 47.6431 47.5248 47.8477 47.2445C48.0522 46.9679 48.2056 46.6384 48.3079 46.2558C48.4139 45.8732 48.467 45.4604 48.467 45.0172V44.8979C48.467 44.4357 48.4139 44.0134 48.3079 43.6308C48.2018 43.2445 48.0484 42.913 47.8477 42.6365C47.6431 42.36 47.3893 42.146 47.0863 41.9945C46.7871 41.8429 46.4405 41.7672 46.0465 41.7672C45.8458 41.7672 45.6564 41.7899 45.4783 41.8354C45.3003 41.877 45.1374 41.9376 44.9897 42.0172C44.8761 42.0778 44.77 42.1498 44.6715 42.2331C44.573 42.3164 44.4821 42.4092 44.3988 42.5115L44.3477 41.8808H43.0977V50.3922ZM47.109 44.8979V45.0172C47.109 45.2899 47.0825 45.5494 47.0295 45.7956C46.9764 46.038 46.8912 46.2539 46.7738 46.4433C46.6602 46.6289 46.5124 46.7766 46.3306 46.8865C46.1526 46.9926 45.9367 47.0456 45.6829 47.0456C45.5276 47.0456 45.3855 47.0285 45.2567 46.9945C45.128 46.9566 45.0124 46.9073 44.9102 46.8467C44.8117 46.7823 44.7246 46.7066 44.6488 46.6195C44.573 46.5323 44.5086 46.4357 44.4556 46.3297V43.5967C44.5162 43.4831 44.5863 43.3808 44.6658 43.2899C44.7492 43.199 44.8458 43.1232 44.9556 43.0626C45.0503 43.0058 45.1583 42.9623 45.2795 42.932C45.4007 42.9016 45.5314 42.8865 45.6715 42.8865C45.9253 42.8865 46.1431 42.9395 46.3249 43.0456C46.5067 43.1516 46.6564 43.2956 46.7738 43.4774C46.8874 43.6592 46.9708 43.8732 47.0238 44.1195C47.0806 44.3619 47.109 44.6213 47.109 44.8979Z" fill="white"/>
<path d="M50.8477 41.8808H49.6658V48.0285H50.9158V43.307C50.9386 43.2501 50.9632 43.199 50.9897 43.1535C51.02 43.1081 51.0541 43.0683 51.092 43.0342C51.1412 42.985 51.1999 42.949 51.2681 42.9263C51.3401 42.8998 51.4215 42.8865 51.5124 42.8865C51.5958 42.8865 51.6696 42.8979 51.734 42.9206C51.8022 42.9433 51.8609 42.9793 51.9102 43.0285C51.9594 43.0778 51.9954 43.146 52.0181 43.2331C52.0446 43.3164 52.0579 43.4187 52.0579 43.5399V48.0285H53.2852V43.466C53.2852 43.4282 53.2852 43.3998 53.2852 43.3808C53.2852 43.3581 53.2852 43.3391 53.2852 43.324C53.3003 43.2596 53.323 43.2028 53.3533 43.1535C53.3836 43.1005 53.4215 43.0551 53.467 43.0172C53.5162 42.9755 53.573 42.9433 53.6374 42.9206C53.7018 42.8979 53.7776 42.8865 53.8647 42.8865C53.948 42.8865 54.0238 42.8979 54.092 42.9206C54.1639 42.9433 54.2246 42.9793 54.2738 43.0285C54.323 43.0816 54.3609 43.1516 54.3874 43.2388C54.4139 43.3221 54.4272 43.4244 54.4272 43.5456V48.0285H55.6772V43.557C55.6772 43.235 55.6431 42.9604 55.5749 42.7331C55.5105 42.502 55.4177 42.3145 55.2965 42.1706C55.1753 42.0342 55.0314 41.9338 54.8647 41.8695C54.7018 41.8013 54.5219 41.7672 54.3249 41.7672C54.1734 41.7672 54.0333 41.7861 53.9045 41.824C53.7795 41.8619 53.6658 41.9149 53.5636 41.9831C53.484 42.0361 53.4102 42.1005 53.342 42.1763C53.2738 42.252 53.2132 42.3335 53.1602 42.4206C53.1223 42.3259 53.0768 42.2426 53.0238 42.1706C52.9708 42.0948 52.9102 42.0304 52.842 41.9774C52.7549 41.9054 52.6507 41.8524 52.5295 41.8183C52.4083 41.7842 52.2719 41.7672 52.1204 41.7672C51.8287 41.7672 51.5787 41.8373 51.3704 41.9774C51.1658 42.1176 51.0049 42.3107 50.8874 42.557L50.8477 41.8808Z" fill="white"/>
<path d="M59.9329 48.1422C60.5314 48.1422 61.0408 48.0248 61.4613 47.7899C61.8855 47.5551 62.1999 47.2899 62.4045 46.9945L61.6772 46.2899C61.4878 46.5323 61.2473 46.7198 60.9556 46.8524C60.6639 46.9812 60.3496 47.0456 60.0124 47.0456C59.7662 47.0456 59.5389 47.0039 59.3306 46.9206C59.1261 46.8373 58.948 46.7198 58.7965 46.5683C58.645 46.4244 58.5257 46.2615 58.4386 46.0797C58.3514 45.8979 58.2871 45.6725 58.2454 45.4035V45.3751H62.5067V44.7899C62.5067 44.3505 62.448 43.9452 62.3306 43.574C62.2132 43.2028 62.0389 42.8827 61.8079 42.6138C61.5768 42.3486 61.2908 42.1422 60.9499 41.9945C60.609 41.8429 60.217 41.7672 59.7738 41.7672C59.3761 41.7672 59.0011 41.8429 58.6488 41.9945C58.3003 42.1422 57.9935 42.3543 57.7283 42.6308C57.4632 42.9073 57.2549 43.2407 57.1033 43.6308C56.9518 44.021 56.8761 44.4566 56.8761 44.9376V45.1706C56.8761 45.591 56.948 45.9831 57.092 46.3467C57.2397 46.7066 57.448 47.0191 57.717 47.2842C57.9859 47.5532 58.3079 47.7634 58.6829 47.9149C59.0617 48.0664 59.4783 48.1422 59.9329 48.1422ZM59.7681 42.8695C59.9954 42.8695 60.1942 42.9092 60.3647 42.9888C60.5389 43.0645 60.6829 43.1668 60.7965 43.2956C60.9139 43.4282 61.0049 43.5835 61.0692 43.7615C61.1336 43.9357 61.1658 44.1119 61.1658 44.2899V44.3808H58.2738C58.3155 44.146 58.3799 43.9357 58.467 43.7501C58.5541 43.5645 58.6621 43.4054 58.7908 43.2729C58.9196 43.1441 59.0655 43.0456 59.2283 42.9774C59.395 42.9054 59.5749 42.8695 59.7681 42.8695Z" fill="white"/>
<path d="M64.0522 48.0285H65.4102V43.6422C65.4708 43.5399 65.5408 43.4452 65.6204 43.3581C65.6999 43.271 65.7852 43.1971 65.8761 43.1365C65.9935 43.057 66.1242 42.9963 66.2681 42.9547C66.412 42.9092 66.5674 42.8865 66.734 42.8865C66.9348 42.8865 67.1128 42.9092 67.2681 42.9547C67.4234 42.9963 67.556 43.0683 67.6658 43.1706C67.7757 43.2729 67.859 43.4092 67.9158 43.5797C67.9727 43.7501 68.0011 43.9623 68.0011 44.216V48.0285H69.359V44.1933C69.359 43.7615 69.3079 43.3941 69.2056 43.091C69.1033 42.7842 68.9594 42.5323 68.7738 42.3354C68.5882 42.1384 68.3647 41.9945 68.1033 41.9035C67.842 41.8126 67.5541 41.7672 67.2397 41.7672C67.0011 41.7672 66.7738 41.8013 66.5579 41.8695C66.342 41.9376 66.1431 42.0342 65.9613 42.1592C65.8477 42.2388 65.7397 42.3297 65.6374 42.432C65.5389 42.5304 65.448 42.6384 65.3647 42.7558L65.2795 41.8808H64.0522V48.0285Z" fill="white"/>
<path d="M73.7681 40.3808H72.4045V41.8808H70.9158V42.8979H72.4045V45.9206C72.4045 46.3145 72.4556 46.6516 72.5579 46.932C72.6639 47.2123 72.8098 47.4414 72.9954 47.6195C73.181 47.8013 73.4026 47.9357 73.6602 48.0229C73.9215 48.1062 74.2075 48.1479 74.5181 48.1479C74.6886 48.1479 74.859 48.1384 75.0295 48.1195C75.2037 48.1043 75.3704 48.0816 75.5295 48.0513C75.6886 48.021 75.8363 47.985 75.9727 47.9433C76.1128 47.8979 76.2321 47.8448 76.3306 47.7842L76.1829 46.8467C76.1147 46.8619 76.0295 46.8808 75.9272 46.9035C75.8287 46.9225 75.7227 46.9395 75.609 46.9547C75.4916 46.9736 75.3704 46.9888 75.2454 47.0001C75.1204 47.0115 74.9992 47.0172 74.8818 47.0172C74.7189 47.0172 74.5693 46.9982 74.4329 46.9604C74.2965 46.9225 74.1791 46.8581 74.0806 46.7672C73.9821 46.6801 73.9045 46.5607 73.8477 46.4092C73.7946 46.2539 73.7681 46.0626 73.7681 45.8354V42.8979H76.0806V41.8808H73.7681V40.3808Z" fill="white"/>
<rect x="97" y="26.2104" width="3.63636" height="3.63636" transform="rotate(90 97 26.2104)" fill="#C51BF0"/>
<rect x="93.3633" y="22.5737" width="3.63636" height="3.63636" transform="rotate(90 93.3633 22.5737)" fill="#C51BF0"/>
<rect x="89.7266" y="18.9375" width="3.63636" height="3.63636" transform="rotate(90 89.7266 18.9375)" fill="#C51BF0"/>
<rect opacity="0.2" x="86.0898" y="18.9375" width="3.63636" height="3.63636" transform="rotate(90 86.0898 18.9375)" fill="#C51BF0"/>
<rect opacity="0.2" x="86.0898" y="33.4829" width="3.63636" height="3.63636" transform="rotate(90 86.0898 33.4829)" fill="#C51BF0"/>
<rect opacity="0.2" x="89.7266" y="29.8467" width="3.63636" height="3.63636" transform="rotate(90 89.7266 29.8467)" fill="#C51BF0"/>
<rect opacity="0.2" x="93.3633" y="26.2104" width="3.63636" height="3.63636" transform="rotate(90 93.3633 26.2104)" fill="#C51BF0"/>
<rect opacity="0.2" x="89.7266" y="22.5737" width="3.63636" height="3.63636" transform="rotate(90 89.7266 22.5737)" fill="#C51BF0"/>
<rect x="93.3633" y="29.8467" width="3.63636" height="3.63636" transform="rotate(90 93.3633 29.8467)" fill="#C51BF0"/>
<rect x="89.7266" y="33.4829" width="3.63636" height="3.63636" transform="rotate(90 89.7266 33.4829)" fill="#C51BF0"/>
</svg>
