<svg width="631" height="200" viewBox="0 0 631 200" fill="none" xmlns="http://www.w3.org/2000/svg">
<path opacity="0.7" d="M0.15625 196H-2.84375V199H0.15625V196ZM151.43 196V199H154.43V196H151.43ZM151.43 156.82H154.43V153.82H151.43V156.82ZM57.6641 156.82H54.6641V159.82H57.6641V156.82ZM57.6641 155.891L55.2679 154.086L54.6641 154.887V155.891H57.6641ZM148.508 35.2969L150.904 37.1019L151.508 36.3004V35.2969H148.508ZM148.508 4.35156H151.508V1.35156H148.508V4.35156ZM1.61719 4.35156V1.35156H-1.38281V4.35156H1.61719ZM1.61719 43.5312H-1.38281V46.5312H1.61719V43.5312ZM91.2656 43.5312H94.2656V40.5312H91.2656V43.5312ZM91.2656 44.4609L93.6593 46.2694L94.2656 45.4668V44.4609H91.2656ZM0.15625 165.055L-2.23741 163.246L-2.84375 164.049V165.055H0.15625ZM0.15625 199H151.43V193H0.15625V199ZM154.43 196V156.82H148.43V196H154.43ZM151.43 153.82H57.6641V159.82H151.43V153.82ZM60.6641 156.82V155.891H54.6641V156.82H60.6641ZM60.0603 157.696L150.904 37.1019L146.112 33.4918L55.2679 154.086L60.0603 157.696ZM151.508 35.2969V4.35156H145.508V35.2969H151.508ZM148.508 1.35156H1.61719V7.35156H148.508V1.35156ZM-1.38281 4.35156V43.5312H4.61719V4.35156H-1.38281ZM1.61719 46.5312H91.2656V40.5312H1.61719V46.5312ZM88.2656 43.5312V44.4609H94.2656V43.5312H88.2656ZM88.872 42.6525L-2.23741 163.246L2.54991 166.863L93.6593 46.2694L88.872 42.6525ZM-2.84375 165.055V196H3.15625V165.055H-2.84375ZM177.195 196H174.195V199H177.195V196ZM225.938 196V199H228.938V196H225.938ZM225.938 4.35156H228.938V1.35156H225.938V4.35156ZM177.195 4.35156V1.35156H174.195V4.35156H177.195ZM177.195 199H225.938V193H177.195V199ZM228.938 196V4.35156H222.938V196H228.938ZM225.938 1.35156H177.195V7.35156H225.938V1.35156ZM174.195 4.35156V196H180.195V4.35156H174.195ZM344.273 202.453C374.164 202.453 398.676 192.688 415.706 174.828C432.721 156.985 441.969 131.378 441.969 100.242H435.969C435.969 130.2 427.088 154.198 411.364 170.687C395.656 187.16 372.82 196.453 344.273 196.453V202.453ZM441.969 100.242V99.9766H435.969V100.242H441.969ZM441.969 99.9766C441.969 68.9022 432.685 43.329 415.654 25.5047C398.609 7.66485 374.099 -2.10156 344.273 -2.10156V3.89844C372.753 3.89844 395.59 13.1906 411.316 29.6496C427.057 46.1241 435.969 70.09 435.969 99.9766H441.969ZM344.273 -2.10156C314.642 -2.10156 290.168 7.66786 273.109 25.5036C256.064 43.3248 246.711 68.8964 246.711 99.9766H252.711C252.711 70.0957 261.686 46.1283 277.445 29.6507C293.191 13.1876 315.998 3.89844 344.273 3.89844V-2.10156ZM246.711 99.9766V100.242H252.711V99.9766H246.711ZM246.711 100.242C246.711 131.381 255.994 156.987 273.007 174.828C290.035 192.685 314.512 202.453 344.273 202.453V196.453C315.863 196.453 293.059 187.162 277.349 170.687C261.624 154.197 252.711 130.197 252.711 100.242H246.711ZM344.273 156.078C331.504 156.078 321.169 150.883 313.948 141.479C306.663 131.993 302.383 117.995 302.383 100.242H296.383C296.383 118.88 300.869 134.3 309.189 145.134C317.573 156.051 329.684 162.078 344.273 162.078V156.078ZM302.383 100.242V99.9766H296.383V100.242H302.383ZM302.383 99.9766C302.383 82.2292 306.693 68.2654 313.993 58.812C321.23 49.4383 331.567 44.2734 344.273 44.2734V38.2734C329.753 38.2734 317.645 44.2648 309.244 55.1451C300.904 65.9455 296.383 81.3333 296.383 99.9766H302.383ZM344.273 44.2734C357.116 44.2734 367.52 49.4745 374.789 58.8648C382.12 68.3348 386.43 82.2975 386.43 99.9766H392.43C392.43 81.3978 387.907 66.009 379.533 55.1919C371.098 44.295 358.923 38.2734 344.273 38.2734V44.2734ZM386.43 99.9766V100.242H392.43V99.9766H386.43ZM386.43 100.242C386.43 117.799 382.215 131.8 374.927 141.336C367.706 150.785 357.307 156.078 344.273 156.078V162.078C359.131 162.078 371.31 155.95 379.694 144.979C388.012 134.095 392.43 118.678 392.43 100.242H386.43ZM462.742 196H459.742V199H462.742V196ZM511.352 196V199H514.352V196H511.352ZM511.352 84.1719V81.1719H508.352V84.1719H511.352ZM512.281 84.1719L514.752 82.47L513.858 81.1719H512.281V84.1719ZM589.312 196L586.842 197.702L587.736 199H589.312V196ZM630.219 196V199H633.219V196H630.219ZM630.219 4.35156H633.219V1.35156H630.219V4.35156ZM581.609 4.35156V1.35156H578.609V4.35156H581.609ZM581.609 114.984V117.984H584.609V114.984H581.609ZM580.68 114.984L578.214 116.693L579.108 117.984H580.68V114.984ZM504.047 4.35156L506.513 2.64332L505.618 1.35156H504.047V4.35156ZM462.742 4.35156V1.35156H459.742V4.35156H462.742ZM462.742 199H511.352V193H462.742V199ZM514.352 196V84.1719H508.352V196H514.352ZM511.352 87.1719H512.281V81.1719H511.352V87.1719ZM509.811 85.8737L586.842 197.702L591.783 194.298L514.752 82.47L509.811 85.8737ZM589.312 199H630.219V193H589.312V199ZM633.219 196V4.35156H627.219V196H633.219ZM630.219 1.35156H581.609V7.35156H630.219V1.35156ZM578.609 4.35156V114.984H584.609V4.35156H578.609ZM581.609 111.984H580.68V117.984H581.609V111.984ZM583.146 113.276L506.513 2.64332L501.581 6.05981L578.214 116.693L583.146 113.276ZM504.047 1.35156H462.742V7.35156H504.047V1.35156ZM459.742 4.35156V196H465.742V4.35156H459.742Z" fill="#C51BF0"/>
</svg>
