<svg width="610" height="158" viewBox="0 0 610 158" fill="none" xmlns="http://www.w3.org/2000/svg">
<path opacity="0.7" d="M43.5625 158H40.5625V161H43.5625V158ZM83.5938 158V161H86.5938V158H83.5938ZM83.5938 32.4375V29.4375H80.5938V32.4375H83.5938ZM127.125 32.4375V35.4375H130.125V32.4375H127.125ZM127.125 0.171875H130.125V-2.82812H127.125V0.171875ZM0.03125 0.171875V-2.82812H-2.96875V0.171875H0.03125ZM0.03125 32.4375H-2.96875V35.4375H0.03125V32.4375ZM43.5625 32.4375H46.5625V29.4375H43.5625V32.4375ZM43.5625 161H83.5938V155H43.5625V161ZM86.5938 158V32.4375H80.5938V158H86.5938ZM83.5938 35.4375H127.125V29.4375H83.5938V35.4375ZM130.125 32.4375V0.171875H124.125V32.4375H130.125ZM127.125 -2.82812H0.03125V3.17188H127.125V-2.82812ZM-2.96875 0.171875V32.4375H3.03125V0.171875H-2.96875ZM0.03125 35.4375H43.5625V29.4375H0.03125V35.4375ZM40.5625 32.4375V158H46.5625V32.4375H40.5625ZM144.078 158H141.078V161H144.078V158ZM252.25 158V161H255.25V158H252.25ZM252.25 125.734H255.25V122.734H252.25V125.734ZM184.219 125.734H181.219V128.734H184.219V125.734ZM184.219 93.7969V90.7969H181.219V93.7969H184.219ZM248.203 93.7969V96.7969H251.203V93.7969H248.203ZM248.203 63.6094H251.203V60.6094H248.203V63.6094ZM184.219 63.6094H181.219V66.6094H184.219V63.6094ZM184.219 32.4375V29.4375H181.219V32.4375H184.219ZM252.25 32.4375V35.4375H255.25V32.4375H252.25ZM252.25 0.171875H255.25V-2.82812H252.25V0.171875ZM144.078 0.171875V-2.82812H141.078V0.171875H144.078ZM144.078 161H252.25V155H144.078V161ZM255.25 158V125.734H249.25V158H255.25ZM252.25 122.734H184.219V128.734H252.25V122.734ZM187.219 125.734V93.7969H181.219V125.734H187.219ZM184.219 96.7969H248.203V90.7969H184.219V96.7969ZM251.203 93.7969V63.6094H245.203V93.7969H251.203ZM248.203 60.6094H184.219V66.6094H248.203V60.6094ZM187.219 63.6094V32.4375H181.219V63.6094H187.219ZM184.219 35.4375H252.25V29.4375H184.219V35.4375ZM255.25 32.4375V0.171875H249.25V32.4375H255.25ZM252.25 -2.82812H144.078V3.17188H252.25V-2.82812ZM141.078 0.171875V158H147.078V0.171875H141.078ZM266.141 158L263.298 157.042L261.965 161H266.141V158ZM308.25 158V161H310.517L311.136 158.819L308.25 158ZM318.094 123.328V120.328H315.827L315.208 122.509L318.094 123.328ZM369.609 123.328L372.495 122.509L371.876 120.328H369.609V123.328ZM379.453 158L376.567 158.819L377.186 161H379.453V158ZM421.562 158V161H425.738L424.406 157.042L421.562 158ZM368.406 0.171875L371.249 -0.78567L370.561 -2.82812H368.406V0.171875ZM319.297 0.171875V-2.82812H317.142L316.454 -0.78567L319.297 0.171875ZM343.469 34.5156V31.5156H341.204L340.583 33.6942L343.469 34.5156ZM344.234 34.5156L347.12 33.6942L346.5 31.5156H344.234V34.5156ZM361.297 94.4531V97.4531H365.27L364.182 93.6317L361.297 94.4531ZM326.406 94.4531L323.521 93.6317L322.433 97.4531H326.406V94.4531ZM266.141 161H308.25V155H266.141V161ZM311.136 158.819L320.98 124.147L315.208 122.509L305.364 157.181L311.136 158.819ZM318.094 126.328H369.609V120.328H318.094V126.328ZM366.723 124.147L376.567 158.819L382.339 157.181L372.495 122.509L366.723 124.147ZM379.453 161H421.562V155H379.453V161ZM424.406 157.042L371.249 -0.78567L365.563 1.12942L418.719 158.958L424.406 157.042ZM368.406 -2.82812H319.297V3.17188H368.406V-2.82812ZM316.454 -0.78567L263.298 157.042L268.984 158.958L322.14 1.12942L316.454 -0.78567ZM343.469 37.5156H344.234V31.5156H343.469V37.5156ZM341.349 35.337L358.412 95.2745L364.182 93.6317L347.12 33.6942L341.349 35.337ZM361.297 91.4531H326.406V97.4531H361.297V91.4531ZM329.292 95.2745L346.354 35.337L340.583 33.6942L323.521 93.6317L329.292 95.2745ZM436.766 158H433.766V161H436.766V158ZM472.094 158V161H475.094V158H472.094ZM472.094 59.3438V56.3438H469.094V59.3438H472.094ZM472.969 59.3438L475.762 58.2504L475.016 56.3438H472.969V59.3438ZM511.578 158L508.784 159.093L509.531 161H511.578V158ZM534.547 158V161H536.594L537.341 159.093L534.547 158ZM573.156 59.3438V56.3438H571.109L570.363 58.2504L573.156 59.3438ZM574.031 59.3438H577.031V56.3438H574.031V59.3438ZM574.031 158H571.031V161H574.031V158ZM609.359 158V161H612.359V158H609.359ZM609.359 0.171875H612.359V-2.82812H609.359V0.171875ZM562.984 0.171875V-2.82812H560.923L560.184 -0.903271L562.984 0.171875ZM523.391 103.312V106.312H525.452L526.191 104.388L523.391 103.312ZM522.734 103.312L519.934 104.388L520.673 106.312H522.734V103.312ZM483.141 0.171875L485.941 -0.903271L485.202 -2.82812H483.141V0.171875ZM436.766 0.171875V-2.82812H433.766V0.171875H436.766ZM436.766 161H472.094V155H436.766V161ZM475.094 158V59.3438H469.094V158H475.094ZM472.094 62.3438H472.969V56.3438H472.094V62.3438ZM470.175 60.4371L508.784 159.093L514.372 156.907L475.762 58.2504L470.175 60.4371ZM511.578 161H534.547V155H511.578V161ZM537.341 159.093L575.95 60.4371L570.363 58.2504L531.753 156.907L537.341 159.093ZM573.156 62.3438H574.031V56.3438H573.156V62.3438ZM571.031 59.3438V158H577.031V59.3438H571.031ZM574.031 161H609.359V155H574.031V161ZM612.359 158V0.171875H606.359V158H612.359ZM609.359 -2.82812H562.984V3.17188H609.359V-2.82812ZM560.184 -0.903271L520.59 102.237L526.191 104.388L565.785 1.24702L560.184 -0.903271ZM523.391 100.312H522.734V106.312H523.391V100.312ZM525.535 102.237L485.941 -0.903271L480.34 1.24702L519.934 104.388L525.535 102.237ZM483.141 -2.82812H436.766V3.17188H483.141V-2.82812ZM433.766 0.171875V158H439.766V0.171875H433.766Z" fill="#C51BF0"/>
</svg>
