<svg width="260" height="60" viewBox="0 0 260 60" fill="none" xmlns="http://www.w3.org/2000/svg">
<g clip-path="url(#clip0_1608_6843)">
<path d="M81.6902 5.3587C81.5014 5.3587 77.3113 5.54745 72.1019 6.79317C65.0428 8.45413 59.7579 11.2098 56.5115 14.947C55.7943 15.7774 55.1148 16.5702 54.5108 17.3252C53.2273 17.6649 49.6789 18.6464 48.0557 18.9484C47.112 19.1371 46.3193 19.6656 45.753 20.4583C44.5828 22.157 42.5444 25.63 42.4689 25.781L40.1284 29.7824L44.3941 27.9327C46.2438 27.1022 48.8485 26.5359 49.6034 26.9889C49.6412 27.0267 49.6789 27.0267 49.7167 27.2532C49.7167 28.4611 50.0187 29.6314 50.5849 30.8016C49.4147 31.7076 48.773 33.142 48.8485 34.6142V39.8236H54.0578C55.53 39.8991 56.9268 39.2196 57.8705 38.0872C59.0407 38.6534 60.2109 38.9176 61.4189 38.9554C61.6076 38.9931 61.6454 39.0309 61.6454 39.0686C62.0984 39.8236 61.5321 42.4283 60.7017 44.278L58.852 48.5059L62.8534 46.1655C63.0044 46.09 66.4773 44.0515 68.176 42.8813C68.9687 42.3528 69.4972 41.5223 69.6859 40.5786C70.0257 38.9554 70.9694 35.407 71.3092 34.1235C72.0641 33.5195 72.8569 32.84 73.6873 32.1228C82.4451 24.3842 83.2379 7.62365 83.2756 6.90641L83.3511 5.2832L81.6902 5.3587ZM50.3207 24.0445C49.3392 23.7425 48.2067 23.7803 47.112 23.969C47.5272 23.2895 47.9425 22.6478 48.2822 22.157C48.3577 22.006 48.5087 21.9305 48.6975 21.8928C49.4524 21.7418 50.6227 21.4398 51.7929 21.1756C51.1134 22.1948 50.6604 23.1385 50.3207 24.0445ZM55.4545 36.162C55.1526 36.5772 54.6241 36.8037 54.1333 36.7659H53.6426L56.7758 31.8586L51.8684 35.0295V34.501C51.8306 33.9725 52.0571 33.4818 52.4724 33.1798L58.4745 28.4234C58.7765 28.1591 59.1917 27.9704 59.5692 27.8949L61.1547 27.5174L60.7772 29.1029C60.6639 29.5181 60.5129 29.8956 60.2487 30.1976L55.4545 36.162ZM66.7038 39.9746C66.666 40.1256 66.5905 40.2766 66.4395 40.3899C65.9488 40.7296 65.3071 41.1448 64.6276 41.5601C64.8163 40.4654 64.8541 39.3329 64.5521 38.3514C65.4581 38.0117 66.4018 37.5587 67.421 36.9169C67.1568 38.0494 66.8548 39.1819 66.7038 39.9746ZM71.6867 29.8579C66.4773 34.4632 63.6083 35.8222 61.5321 35.8977C61.4944 35.8977 61.4944 35.8977 61.4566 35.8977C60.8149 35.8977 60.2864 35.7845 59.7579 35.5957L62.5514 32.0473C63.0799 31.3678 63.4573 30.6128 63.6838 29.7824L65.1938 23.4405L58.852 24.9505C58.0215 25.1392 57.2288 25.5167 56.587 26.0452L53.0386 28.8386C52.8499 28.3101 52.7366 27.7817 52.7366 27.1399C52.7366 27.1022 52.7366 27.1022 52.7366 27.0644C52.7744 25.026 54.1711 22.1193 58.7765 16.9099C64.3256 10.6058 75.8013 8.90712 80.1047 8.49188C79.6895 12.833 77.9907 24.3087 71.6867 29.8579Z" fill="#10D078"/>
<path d="M48.2268 47.2818C46.3016 47.6593 44.3386 47.7726 42.3757 47.8103C41.2432 47.8103 40.1108 47.7726 38.9405 47.6593C39.3935 46.9044 39.8088 46.1494 40.1863 45.3566C40.9035 43.7334 41.432 42.1102 41.8472 40.4493C42.2247 38.8638 42.6777 37.3161 43.2439 35.7684C43.7724 34.2207 44.3764 32.673 45.0559 31.1252C44.4519 31.7292 43.9234 32.371 43.4327 33.0504C42.9419 33.7299 42.4512 34.4472 41.9982 35.1644C41.13 36.5989 40.375 38.1843 39.7333 39.732C39.1293 41.242 38.4875 42.752 37.7326 44.1109C36.9776 45.4699 36.1093 46.7156 35.0524 47.9236L33.3159 49.962L35.9961 50.3395C38.1101 50.6415 40.2617 50.7925 42.4134 50.717C43.5082 50.6793 44.5651 50.6038 45.6599 50.415C46.7168 50.264 47.8116 49.9998 48.8308 49.6978C50.907 49.0938 52.9077 48.1123 54.6819 46.8666C55.5501 46.2249 56.3806 45.5076 57.0601 44.6772C57.7396 43.8467 58.3813 42.9785 58.7965 41.997C57.3621 43.5069 55.6256 44.6017 53.8514 45.4699C52.0395 46.3381 50.152 46.9044 48.2268 47.2818Z" fill="#10D078"/>
<path d="M70.5921 23.3272C71.951 23.3272 73.31 22.7987 74.367 21.7795C76.4432 19.7033 76.4432 16.3436 74.367 14.2674C73.3478 13.2482 72.0265 12.7197 70.5921 12.7197C69.1576 12.7197 67.8364 13.286 66.8172 14.2674C64.741 16.3436 64.741 19.7033 66.8172 21.7795C67.8364 22.7987 69.1954 23.3272 70.5921 23.3272ZM68.9311 16.3814C69.3841 15.9284 69.9503 15.7019 70.5543 15.7019C71.1583 15.7019 71.7623 15.9284 72.1775 16.3814C73.0835 17.2874 73.0835 18.7218 72.1775 19.6278C71.2716 20.5338 69.8371 20.5338 68.9311 19.6278C68.0629 18.7596 68.0629 17.2874 68.9311 16.3814Z" fill="#10D078"/>
</g>
<g clip-path="url(#clip1_1608_6843)">
<path d="M103.88 34.443C102.331 36.1222 100.743 36.9422 98.9997 36.9422C95.6687 36.9422 93.0736 34.1696 93.0736 30.616C93.0736 27.0233 95.5912 24.2506 98.8447 24.2506C101.246 24.2506 102.796 25.5393 103.841 26.6718L104.035 26.9061L106.049 24.7583L105.855 24.563C104.5 23.1182 102.486 21.439 98.8835 21.439C93.9257 21.439 89.8975 25.5784 89.8975 30.655C89.8975 35.8098 93.8482 39.8711 98.8835 39.8711C102.524 39.8711 104.616 38.0357 106.01 36.4736L106.204 36.2393L104.112 34.2868L103.88 34.443Z" fill="white"/>
<path d="M116.894 21.3998C114.609 21.3998 112.75 22.298 111.394 24.0944V14.5269L108.296 16.0498V39.3633H111.394V29.3272C111.394 26.3593 113.37 24.2896 116.197 24.2896C118.947 24.2896 120.574 26.125 120.574 29.132V39.4024H123.673V28.5071C123.673 24.1725 121.039 21.3998 116.894 21.3998Z" fill="white"/>
<path d="M134.014 21.4778C131.342 21.4778 129.405 22.1807 127.74 22.9617L127.507 23.0789L128.475 25.6953L128.747 25.5781C130.567 24.7581 132.078 24.3676 133.782 24.3676C136.881 24.3676 138.507 25.8515 138.507 28.7022V28.8584C137.229 28.507 135.757 28.2336 133.627 28.2336C128.902 28.2336 126.113 30.4205 126.113 34.0913C126.113 37.8011 129.444 39.7537 132.736 39.7537C135.564 39.7537 137.384 38.5431 138.546 37.3325V39.3632H141.606V28.6632C141.606 26.3982 140.986 24.68 139.747 23.4303C138.43 22.1807 136.454 21.4778 134.014 21.4778ZM138.507 31.4749V32.8416C138.507 35.3019 136.222 37.1373 133.162 37.1373C131.264 37.1373 129.211 36.161 129.211 34.0132C129.211 32.0216 130.954 30.811 133.859 30.811C135.873 30.811 137.462 31.1624 138.507 31.4749Z" fill="white"/>
<path d="M153.845 21.3997C151.56 21.3997 149.701 22.2978 148.345 24.0942V21.7902H145.247V39.4413H148.345V29.327C148.345 26.3591 150.321 24.2894 153.148 24.2894C155.898 24.2894 157.525 26.1248 157.525 29.1318V39.4022H160.624V28.507C160.624 24.1723 157.951 21.3997 153.845 21.3997Z" fill="white"/>
<path d="M177.744 24.2894C176.078 22.3759 173.948 21.3997 171.43 21.3997C169.338 21.3997 167.247 22.2197 165.736 23.6256C164.071 25.1876 163.18 27.3354 163.18 29.7566C163.18 32.1387 164.071 34.3256 165.736 35.8876C167.247 37.2934 169.338 38.1135 171.43 38.1135C173.948 38.1135 176.039 37.0982 177.782 35.0675V36.2391C177.782 39.9099 175.652 42.0186 171.934 42.0186C169.648 42.0186 167.518 41.3157 165.581 39.9099L165.31 39.7146L163.877 42.2139L164.11 42.3701C166.395 43.9712 169.067 44.7912 171.972 44.7912C174.8 44.7912 177.085 43.9712 178.634 42.4091C180.106 40.8861 180.881 38.8164 180.881 36.161V21.7511H177.782V24.2894H177.744ZM177.86 29.7175C177.86 33.1931 174.839 35.2628 171.934 35.2628C168.796 35.2628 166.356 32.8416 166.356 29.7566C166.356 26.5544 168.68 24.2504 171.934 24.2504C174.839 24.2113 177.86 26.281 177.86 29.7175Z" fill="white"/>
<path d="M192.152 21.3997C187.349 21.3997 183.747 25.3438 183.747 30.6157C183.747 35.8876 187.504 39.8318 192.5 39.8318C195.444 39.8318 197.652 38.8164 199.705 36.5124L199.898 36.2781L197.884 34.4818L197.691 34.677C196.18 36.2781 194.553 36.981 192.578 36.981C189.595 36.981 187.388 34.9504 186.962 31.9044H200.324L200.363 31.631C200.402 31.2405 200.402 30.9672 200.402 30.7329C200.363 25.1486 197.071 21.3997 192.152 21.3997ZM197.187 29.288H186.923C187.388 26.242 189.479 24.1332 192.113 24.1332C195.328 24.1332 196.839 26.7106 197.187 29.288Z" fill="white"/>
<path d="M203.269 39.4025H206.367V15.6204L203.269 17.1824V39.4025Z" fill="white"/>
<path d="M210.434 39.4024H213.533V14.5269L210.434 16.0889V39.4024Z" fill="white"/>
<path d="M230.033 21.7515L224.765 35.4974L218.8 21.7515H215.392L223.216 39.0511C222.17 41.4722 221.279 41.9409 220.079 41.9409C219.071 41.9409 218.374 41.7847 217.561 41.3551L217.29 41.1989L216.205 43.7763L216.438 43.8934C217.716 44.5182 218.8 44.7916 220.156 44.7916C222.906 44.7916 224.61 43.3467 226.043 39.7931L233.325 21.7515H230.033Z" fill="white"/>
</g>
<defs>
<clipPath id="clip0_1608_6843">
<rect width="51.3182" height="51.3182" fill="white" transform="translate(33.3159 4)"/>
</clipPath>
<clipPath id="clip1_1608_6843">
<rect width="143.428" height="30.2646" fill="white" transform="translate(89.8975 14.5269)"/>
</clipPath>
</defs>
</svg>
