<svg width="163" height="50" viewBox="0 0 163 50" fill="none" xmlns="http://www.w3.org/2000/svg">
<g clip-path="url(#clip0_1608_6851)">
<path d="M-9.15527e-05 27.729C-9.15527e-05 39.1085 9.34888 48.3333 20.8814 48.3333C32.414 48.3333 41.7629 39.1085 41.7629 27.729C41.7629 16.3496 32.414 7.12476 20.8814 7.12476C9.34888 7.12476 -9.15527e-05 16.3496 -9.15527e-05 27.729Z" fill="white"/>
<path d="M38.7223 7.26077C38.7223 10.3503 41.2605 12.8548 44.3917 12.8548C47.5228 12.8548 50.061 10.3503 50.061 7.26077C50.061 4.17128 47.5228 1.66675 44.3917 1.66675C41.2605 1.66675 38.7223 4.17128 38.7223 7.26077Z" fill="white"/>
<path d="M51.4185 37.9816H54.8297L56.8858 27.4467C57.1724 25.9563 57.4847 23.5923 57.4847 23.5923H57.5369C57.5369 23.5923 57.563 25.7763 57.6675 27.1382L58.5536 37.9816H62.095L67.2252 27.113C67.9543 25.5715 68.7618 23.5929 68.7618 23.5929H68.814C68.814 23.5929 68.2151 25.8542 67.9025 27.4473L65.8463 37.9823H69.3101L72.9021 19.6097H67.5376L63.0588 29.1419C61.9912 31.4283 61.1577 33.8954 61.1577 33.8954H61.1316C61.1316 33.8954 61.1055 31.2489 60.8972 28.6784L60.1942 19.6097H55.0121L51.4185 37.9816ZM78.1103 38.3681C82.6675 38.3681 85.532 34.6679 85.532 30.4541C85.532 26.5485 82.7716 24.4415 79.3603 24.4415C74.8032 24.4415 71.8346 28.0643 71.8346 32.2269C71.8346 36.2588 74.6208 38.3671 78.1103 38.3671V38.3681ZM75.3238 32.4314C75.3238 29.8874 76.4955 27.0354 79.1779 27.0354C81.234 27.0354 82.0425 28.6285 82.0425 30.3501C82.0425 32.8681 80.8966 35.7719 78.1883 35.7719C76.1312 35.7719 75.3238 34.23 75.3238 32.4314ZM91.9377 38.3671C96.4948 38.3671 99.3594 34.667 99.3594 30.4532C99.3594 26.5476 96.5989 24.4405 93.1877 24.4405C88.6312 24.4402 85.6613 28.0634 85.6613 32.226C85.6613 36.2588 88.4485 38.3671 91.938 38.3671H91.9377ZM89.1515 32.4314C89.1515 29.8874 90.3231 27.0354 93.0056 27.0354C95.0617 27.0354 95.8701 28.6285 95.8701 30.3501C95.8701 32.8681 94.7242 35.7719 92.016 35.7719C89.9589 35.7719 89.1515 34.23 89.1515 32.4314ZM104.854 24.7992H101.443L98.8646 37.9807H102.354L103.76 30.7861C104.125 28.8591 105.297 27.3687 106.937 27.3687C108.422 27.3687 109.099 28.3194 108.76 30.0667L107.198 37.9816H110.687L112.302 29.6571C112.901 26.5736 111.365 24.4402 108.708 24.4402C106.807 24.4402 105.687 25.2623 104.542 26.8812H104.464L104.854 24.7992ZM112.328 37.9807H116.182L117.482 31.3265H122.013C126.18 31.3265 129.018 28.9625 129.018 25.0311C129.018 21.5879 126.649 19.6094 123.081 19.6094H115.921L112.328 37.9807ZM119.149 22.8207H122.587C124.279 22.8207 125.165 23.7201 125.165 25.2102C125.165 27.3942 123.576 28.3194 121.832 28.3194H118.083L119.149 22.8207ZM135.712 37.9816H139.02V37.8528C138.811 37.5446 138.733 36.9279 138.915 36.0285L140.165 29.708C140.894 25.8793 138.394 24.4663 135.087 24.4663C131.65 24.4663 129.539 26.1109 129.098 28.8089H132.223C132.535 27.4985 133.499 26.933 134.957 26.933C136.285 26.933 137.04 27.4483 137.04 28.3976C137.04 29.708 136.077 29.8107 133.577 30.0165C130.322 30.2741 127.509 30.9159 127.509 34.4103C127.509 37.1341 129.696 38.2901 131.754 38.2901C133.68 38.2901 134.671 37.3907 135.478 36.5428H135.53C135.479 37.0298 135.541 37.522 135.712 37.9816ZM130.869 34.1012C130.869 32.3026 132.718 32.3796 133.994 32.1483C134.87 32.0334 135.727 31.8089 136.546 31.4801L136.129 33.5614C135.868 34.769 134.697 35.8997 132.874 35.8997C131.702 35.9003 130.869 35.2837 130.869 34.1012ZM139.046 42.2985H141.232C143.811 42.2985 144.956 41.2706 146.284 38.6241L153.187 24.8002H149.644L146.884 30.7871C146.311 32.0205 145.66 33.7678 145.66 33.7678H145.608C145.608 33.7678 145.399 31.9947 145.216 30.7871L144.305 24.8002H140.659L142.585 34.1788C142.824 35.1482 142.972 36.1374 143.027 37.1337C143.027 38.7783 142.194 39.5747 140.71 39.5747H139.59L139.046 42.2985Z" fill="white"/>
<path d="M154.696 20.0337H156.037L155.288 23.8492H156.22L156.968 20.0337H158.316L158.466 19.2563H154.846L154.696 20.0337ZM157.815 23.8492H158.667L159.182 21.2156C159.253 20.843 159.331 20.2521 159.331 20.2521H159.345C159.345 20.2521 159.351 20.7995 159.377 21.1386L159.598 23.8495H160.484L161.767 21.1322C161.949 20.7457 162.151 20.2521 162.151 20.2521H162.164C162.164 20.2521 162.014 20.8172 161.935 21.2156L161.421 23.8492H162.287L163.185 19.2563H161.844L160.724 21.6394C160.457 22.211 160.249 22.8277 160.249 22.8277H160.244C160.244 22.8277 160.238 22.1659 160.186 21.5238L160.01 19.2563H158.714L157.815 23.8492Z" fill="white"/>
</g>
<defs>
<clipPath id="clip0_1608_6851">
<rect width="163" height="50" fill="white"/>
</clipPath>
</defs>
</svg>
