<svg width="260" height="60" viewBox="0 0 260 60" fill="none" xmlns="http://www.w3.org/2000/svg">
<mask id="mask0_1608_6857" style="mask-type:luminance" maskUnits="userSpaceOnUse" x="33" y="8" width="44" height="44">
<path fill-rule="evenodd" clip-rule="evenodd" d="M33 8.27441H76.9815V52.0001H33V8.27441Z" fill="white"/>
</mask>
<g mask="url(#mask0_1608_6857)">
<path fill-rule="evenodd" clip-rule="evenodd" d="M73.4734 35.7177C72.5396 33.8693 71.6503 31.9995 70.7043 30.1563C71.6132 28.2671 72.5567 26.3901 73.4954 24.5132C73.4539 28.248 73.4954 31.9829 73.4734 35.7177ZM68.9251 33.7401C69.2506 33.0448 69.5953 32.3567 69.9526 31.6761C70.7483 33.2224 71.4828 34.7973 72.2809 36.3409C71.1573 35.4803 70.0463 34.6054 68.9251 33.7401ZM62.3862 46.9512C63.2956 45.0667 64.2391 43.1993 65.1656 41.3224C67.2499 40.8645 69.3317 40.4019 71.4136 39.9322C68.4179 42.286 65.3896 44.6041 62.3862 46.9512ZM61.1571 42.2214C61.9279 42.0462 62.6991 41.869 63.4703 41.6938C62.6967 43.2473 61.9405 44.8103 61.1518 46.359C61.1644 44.9807 61.1595 43.5997 61.1571 42.2214ZM65.5819 37.4199C65.1484 38.3474 64.6653 39.2512 64.2293 40.1788C63.2092 40.421 62.1817 40.6394 61.1571 40.8693C61.162 39.3903 61.1571 37.9138 61.162 36.4344C62.6327 36.7654 64.1083 37.0936 65.5819 37.4199ZM61.162 32.5533C61.8395 32.0308 62.5146 31.5009 63.1921 30.9808C64.5373 32.0213 65.8802 33.0639 67.2152 34.1139C66.8852 34.8163 66.5377 35.514 66.178 36.2045C64.5052 35.8279 62.825 35.4732 61.1546 35.0823C61.1595 34.2412 61.1595 33.3972 61.162 32.5533ZM62.0909 30.1345C61.7829 30.3743 61.4724 30.6141 61.162 30.8539C61.1595 30.3719 61.1595 29.8927 61.1595 29.4107C61.47 29.6529 61.7804 29.8927 62.0909 30.1345ZM61.162 25.17C62.8421 24.8081 64.5174 24.4196 66.1979 24.0601C66.5377 24.7554 66.8755 25.4507 67.2254 26.1408C65.885 27.1908 64.5398 28.2361 63.1921 29.281C62.5121 28.7562 61.8346 28.229 61.1595 27.699C61.1595 26.8575 61.1595 26.0139 61.162 25.17ZM61.1644 13.9151C61.943 15.4615 62.6991 17.0169 63.4752 18.5633C62.704 18.3932 61.9332 18.218 61.162 18.0503C61.1595 16.6721 61.1571 15.2934 61.1644 13.9151ZM65.5893 22.8424C64.1136 23.1706 62.64 23.504 61.1644 23.8203C61.1571 22.3461 61.1571 20.8695 61.1644 19.3953C62.1744 19.6205 63.1847 19.8508 64.1996 20.064C64.6828 20.9797 65.126 21.9172 65.5893 22.8424ZM71.4185 20.3253C69.3317 19.8698 67.2499 19.3977 65.1656 18.9422C64.244 17.0673 63.3053 15.2003 62.3936 13.3205C65.4043 15.6529 68.4102 17.9929 71.4185 20.3253ZM68.9104 26.5364C70.019 25.6782 71.1304 24.8224 72.2365 23.9618C71.5048 25.5295 70.7018 27.064 69.9477 28.6218C69.6177 27.9194 69.2726 27.2245 68.9104 26.5364ZM66.9492 22.5498C66.6021 21.8474 66.2643 21.1403 65.9095 20.4426C67.6467 20.8453 69.3883 21.2243 71.1304 21.6076C69.7407 21.9362 68.3389 22.2216 66.9492 22.5498ZM71.4184 22.8999C70.3787 23.6982 69.3488 24.5084 68.3116 25.3115C68.063 24.7887 67.8092 24.271 67.5481 23.7533C68.8392 23.4726 70.1274 23.1754 71.4184 22.8999ZM67.8239 32.8772C66.6412 31.9639 65.456 31.0553 64.286 30.1297C65.4585 29.1974 66.666 28.3055 67.8386 27.3684C68.2773 28.296 68.7503 29.2093 69.1964 30.1369C68.7357 31.0478 68.3018 31.9734 67.8239 32.8772ZM71.1129 38.6519C69.3761 39.0594 67.6267 39.4189 65.8875 39.8264C66.2497 39.1291 66.6045 38.4315 66.9419 37.7219C68.334 38.0263 69.7236 38.3403 71.1129 38.6519ZM67.5383 36.5089C67.797 35.9932 68.0606 35.4779 68.3291 34.965C69.3566 35.7586 70.3836 36.5545 71.4013 37.3624C70.1127 37.0841 68.8265 36.7916 67.5383 36.5089ZM59.8045 17.7412C59.2203 17.6163 58.6413 17.4894 58.06 17.3574C58.6662 16.1996 59.2325 15.0203 59.8069 13.8481C59.8016 15.1448 59.8045 16.4441 59.8045 17.7412ZM59.8045 24.1271C58.9591 24.3166 58.1142 24.5037 57.2692 24.6908C56.5966 24.1584 55.9137 23.6383 55.2313 23.1179C55.9582 21.5957 56.7343 20.0926 57.4684 18.5728C58.247 18.7456 59.0284 18.9204 59.8069 19.0933C59.7992 20.7712 59.8069 22.4492 59.8045 24.1271ZM59.7967 26.6613C59.4052 26.3517 59.0109 26.0425 58.6193 25.7357C59.0133 25.6497 59.4101 25.5632 59.8069 25.4768C59.8045 25.8724 59.7992 26.2657 59.7967 26.6613ZM56.9168 34.15C55.7316 33.884 54.5465 33.6129 53.3565 33.3635C52.8122 32.2897 52.2748 31.2111 51.7549 30.125C52.2821 29.0535 52.8195 27.9868 53.3345 26.9106C54.5196 26.6442 55.7043 26.3901 56.8846 26.1099C57.8726 26.8408 58.841 27.5983 59.8045 28.3606C59.8045 29.5427 59.8016 30.7243 59.8069 31.9088C58.8483 32.6639 57.875 33.3948 56.9168 34.15ZM59.7992 34.7878C59.4101 34.699 59.0182 34.6102 58.6291 34.5238C59.0182 34.2146 59.4101 33.9078 59.8045 33.601C59.8016 33.9966 59.8016 34.3922 59.7992 34.7878ZM57.4884 41.689C56.7 40.1958 55.9928 38.6614 55.2167 37.1634C55.8942 36.6263 56.579 36.0991 57.2692 35.5762C58.1117 35.7609 58.9567 35.9453 59.8016 36.1347C59.8069 37.8103 59.8016 39.4886 59.8045 41.1642C59.0308 41.3366 58.2596 41.5095 57.4884 41.689ZM59.7992 46.3828C59.208 45.2273 58.6316 44.0646 58.0722 42.8949C58.6487 42.7728 59.2276 42.6455 59.8045 42.5187C59.8016 43.8058 59.8069 45.0933 59.7992 46.3828ZM54.3937 43.7099C55.1674 43.5446 55.941 43.3745 56.7147 43.2065C57.3209 44.4603 57.9467 45.7045 58.5725 46.9512C57.1682 45.8841 55.7858 44.7912 54.3937 43.7099ZM46.389 45.4837C48.4953 45.0382 50.5922 44.5538 52.696 44.0912C54.3619 45.4001 56.0445 46.6872 57.7198 47.9866C53.9378 47.1668 50.1685 46.3039 46.389 45.4837ZM49.491 41.6102C50.1094 42.087 50.7303 42.5619 51.3459 43.0412C49.6189 43.4296 47.8919 43.8129 46.1625 44.1966C47.2539 43.3119 48.382 42.4731 49.491 41.6102ZM45.3049 43.166C45.8618 41.9982 46.4529 40.8479 47.0147 39.6829C47.4731 40.04 47.9314 40.3996 48.3918 40.7567C47.3623 41.5574 46.3299 42.3582 45.3049 43.166ZM44.0362 37.3719C44.6717 37.8583 45.3024 38.3546 45.938 38.8437C45.2975 40.1165 44.6567 41.3894 44.0435 42.6769C44.0285 40.9077 44.0386 39.1386 44.0362 37.3719ZM44.0386 32.6373C45.5314 32.9584 47.0196 33.2894 48.5055 33.6323C47.8573 34.9674 47.1773 36.2858 46.5466 37.6284C45.7139 36.981 44.8836 36.329 44.0435 35.6864C44.0309 34.6701 44.0333 33.6537 44.0386 32.6373ZM44.0333 24.5925C44.8587 23.9404 45.6915 23.2978 46.5218 22.6505C47.2119 23.9642 47.8573 25.302 48.5079 26.6371C47.0147 26.9657 45.524 27.2939 44.0333 27.6297C44.0362 26.6181 44.0362 25.6041 44.0333 24.5925ZM45.9331 21.4138C45.3269 21.9001 44.7084 22.3679 44.0904 22.8424C44.0977 21.126 44.1099 19.4096 44.0826 17.6932C44.7035 18.9323 45.3195 20.1719 45.9331 21.4138ZM48.4044 19.4885C47.9485 19.8532 47.4853 20.2151 47.0196 20.5698C46.4554 19.4191 45.8716 18.2755 45.3244 17.1176C46.347 17.9112 47.3672 18.7119 48.4044 19.4885ZM51.3435 17.2187C50.7279 17.7027 50.1094 18.1871 49.4783 18.6521C48.3722 17.782 47.2588 16.9214 46.1498 16.0557C47.8797 16.4465 49.614 16.8183 51.3435 17.2187ZM57.7149 12.2729C56.0494 13.5794 54.3693 14.8693 52.6936 16.1686C50.602 15.7061 48.5152 15.2264 46.4183 14.7828C50.1832 13.9393 53.9505 13.1073 57.7149 12.2729ZM49.8629 26.3326C49.1337 24.8129 48.3625 23.3121 47.6332 21.7923C48.259 21.3155 48.8774 20.8311 49.4983 20.3494C50.8411 21.392 52.1713 22.4515 53.5341 23.4679C53.1743 24.2377 52.7824 24.9901 52.4202 25.7575C51.5704 25.9565 50.7152 26.1432 49.8629 26.3326ZM50.9963 28.5814C50.8163 28.2361 50.639 27.8909 50.4614 27.5456C50.8656 27.4545 51.2697 27.3661 51.6739 27.2749C51.4469 27.7109 51.2229 28.145 50.9963 28.5814ZM50.4814 32.7166C50.6513 32.3567 50.8212 31.9972 50.9963 31.6376C51.2106 32.0836 51.4225 32.5295 51.6343 32.9778C51.2502 32.8914 50.8656 32.805 50.4814 32.7166ZM49.1137 32.4169C47.4238 32.0308 45.7261 31.6689 44.0362 31.2805V28.9695C45.7286 28.6028 47.4165 28.2191 49.1088 27.8453C49.4983 28.6028 49.8629 29.3698 50.2398 30.1321C49.8752 30.8995 49.4861 31.6547 49.1137 32.4169ZM49.4934 39.9057C48.8701 39.4236 48.2467 38.9396 47.6259 38.4529C48.3796 36.9473 49.119 35.4323 49.8727 33.9272C50.7177 34.1163 51.563 34.301 52.408 34.4929C52.7775 35.2528 53.1446 36.0174 53.5341 36.7702C52.1839 37.8131 50.846 38.8675 49.4934 39.9057ZM54.0979 34.8643C54.5885 34.9745 55.0786 35.0847 55.5691 35.1953C55.2513 35.4446 54.9311 35.6912 54.6105 35.9381C54.4406 35.581 54.2682 35.2214 54.0979 34.8643ZM54.1472 37.9974C54.7881 39.3329 55.4509 40.6584 56.1134 41.9863C55.0887 42.219 54.0613 42.4466 53.0338 42.6674C52.2182 42.0272 51.4001 41.3894 50.58 40.7567C51.7651 39.8335 52.9572 38.9178 54.1472 37.9974ZM54.6304 24.3285C54.9409 24.5778 55.2513 24.8248 55.5617 25.0717C55.0712 25.1795 54.5811 25.285 54.0882 25.3904C54.2707 25.0356 54.4503 24.6832 54.6304 24.3285ZM54.1277 22.2525C52.9425 21.3416 51.77 20.4141 50.5849 19.5031C51.4054 18.863 52.2255 18.218 53.0582 17.5925C54.0735 17.8224 55.0912 18.0503 56.1085 18.266C55.4632 19.6014 54.8101 20.9341 54.1277 22.2525ZM58.5652 13.3182C57.954 14.5672 57.3356 15.8139 56.7147 17.0578C55.941 16.8925 55.1698 16.7224 54.401 16.5424C55.7858 15.4662 57.173 14.3872 58.5652 13.3182ZM42.7374 42.6071C41.0621 39.2369 39.3697 35.8735 37.7385 32.4815C39.4113 33.7734 41.0796 35.0728 42.7451 36.3769C42.7374 38.4529 42.75 40.5312 42.7374 42.6071ZM38.5443 28.8593C39.936 27.7613 41.3383 26.6755 42.7374 25.587C42.7427 26.364 42.7427 27.1381 42.7427 27.9123C41.3457 28.2338 39.9389 28.5212 38.5443 28.8593ZM42.7427 34.6629C41.333 33.5915 39.9413 32.4982 38.5443 31.4125C39.9413 31.7217 41.3408 32.0332 42.7374 32.3424C42.7427 33.1142 42.7427 33.8888 42.7427 34.6629ZM38.825 30.1274C40.1308 29.84 41.4365 29.5522 42.7427 29.2549V31.0002C41.4365 30.7029 40.1283 30.4199 38.825 30.1274ZM42.7325 17.6238C42.7549 19.714 42.7374 21.8042 42.7427 23.8948C41.0621 25.2132 39.3547 26.4979 37.6843 27.8263C39.3746 24.4292 41.0646 21.0324 42.7325 17.6238ZM76.775 22.641C77.3882 21.2552 76.5803 19.479 75.0872 19.0306C74.1831 18.6881 73.2245 19.014 72.3966 19.4001C69.3122 16.9694 66.1804 14.5961 63.0984 12.1603C63.2141 11.4028 63.4015 10.5806 63.0271 9.85921C62.6649 9.00101 61.8024 8.45438 60.8906 8.27441H60.0163C58.6637 8.49005 57.7446 9.6507 57.6212 10.9426C53.7362 11.8055 49.8532 12.6784 45.9628 13.5243C45.443 12.8845 44.8319 12.213 43.9474 12.1028C42.3727 11.7385 40.6999 12.9634 40.6038 14.5311C40.4685 15.4516 41.0079 16.2622 41.5649 16.9476C39.8525 20.4307 38.1255 23.9043 36.403 27.3827C35.5014 27.3946 34.5061 27.4834 33.8457 28.1569C32.6752 29.195 32.7298 31.2016 33.9467 32.1819C34.5949 32.805 35.5458 32.8506 36.4006 32.8601C38.1105 36.3432 39.8525 39.8121 41.5526 43.3024C41.0128 43.981 40.4832 44.7647 40.5916 45.6661C40.6506 47.1764 42.1809 48.4159 43.7205 48.1832C44.6913 48.1329 45.3937 47.4257 45.9628 46.7352C49.8405 47.5815 53.7137 48.4492 57.5845 49.3145C57.789 50.0364 57.9809 50.8295 58.6145 51.3235C59.8412 52.4623 62.1031 52.1147 62.8914 50.65C63.399 49.883 63.2634 48.9455 63.0837 48.1016C66.1955 45.6926 69.2897 43.2615 72.419 40.8717C73.3944 41.3846 74.6337 41.6007 75.6192 40.9942C76.9376 40.2723 77.376 38.4481 76.5555 37.2209C76.1835 36.5807 75.4766 36.2525 74.8358 35.9262C74.8358 32.0622 74.8285 28.2001 74.8382 24.3356C75.6392 23.9808 76.4744 23.504 76.775 22.641Z" fill="#2FA749"/>
</g>
<path fill-rule="evenodd" clip-rule="evenodd" d="M106.897 15.4514C105.557 17.7358 106.758 21.0557 108.894 21.7823C108.919 27.7004 108.878 33.6223 108.913 39.5448C108.866 40.2102 109.294 40.9137 109.889 40.6679C110.512 40.6335 110.525 39.7599 110.531 39.1928C110.531 33.3878 110.519 27.5829 110.534 21.7779C112.578 21.0901 113.806 18.0303 112.667 15.7353C111.579 13.0764 108.162 12.9139 106.897 15.4514Z" fill="#2FA849"/>
<path fill-rule="evenodd" clip-rule="evenodd" d="M178.945 11.6562C178.505 12.0604 178.556 12.6744 178.538 13.1995C178.548 21.6964 178.552 30.1933 178.538 38.6902C178.548 39.2514 178.534 39.8414 178.778 40.3712C179.414 41.0092 180.768 40.7426 180.768 39.7732C180.807 30.6617 180.798 21.5508 180.776 12.4399C180.884 11.5594 179.555 11.0342 178.945 11.6562Z" fill="white"/>
<path fill-rule="evenodd" clip-rule="evenodd" d="M96.3383 29.723C93.5986 29.0782 90.6505 29.8185 88.0361 28.5096C86.9519 28.0043 86.9732 26.4638 87.1888 25.3932C87.5189 23.8054 89.0705 23.1809 90.3091 22.6992C92.9918 22.007 96.0765 22.3413 98.2307 24.3983C98.6974 25.0352 99.7603 24.8839 99.8393 24.0127C100.069 23.2447 99.3904 22.7867 98.9272 22.3972C96.2914 20.3237 92.7869 20.0171 89.7058 20.8173C88.4458 21.1831 87.2066 21.8398 86.3379 22.942C85.0559 24.5733 84.8077 27.1442 85.8065 29.0111C86.7577 30.5351 88.5212 30.9088 90.0686 31.1437C92.6504 31.5537 95.4477 30.9687 97.8358 32.3854C98.9343 33.0297 98.9991 34.6695 98.6689 35.8434C98.2129 37.499 96.6186 38.3189 95.1894 38.5854C92.1516 39.1421 88.6572 38.7407 86.3593 36.2455C85.6265 35.5651 84.6177 36.5041 84.9698 37.447C86.7975 39.9818 89.9178 40.6187 92.6866 40.7181C94.9055 40.6944 97.4624 40.6306 99.1107 38.7243C100.788 37.2601 101.053 34.4905 100.274 32.4052C99.5952 30.7061 97.8715 30.0297 96.3383 29.723Z" fill="white"/>
<path fill-rule="evenodd" clip-rule="evenodd" d="M146.94 30.625C146.925 27.958 146.865 25.0124 145.24 22.8244C143.543 20.5117 140.466 20.0687 137.921 20.661C135.829 21.0754 134.133 22.6998 133.137 24.6579C132.564 23.3887 131.813 22.1474 130.641 21.4305C127.364 19.3957 122.625 20.4671 120.729 24.0896C120.665 23.0342 120.936 21.8976 120.503 20.9062C119.752 20.3865 118.738 20.8502 118.794 21.8576C118.711 27.6795 118.749 33.51 118.776 39.3365C118.572 40.5211 120.024 41.27 120.672 40.2106C120.845 36.6727 120.642 33.1229 120.766 29.5816C120.86 27.7761 121.264 25.8985 122.357 24.468C123.948 22.236 127.15 21.8449 129.378 23.1428C131.255 24.2948 131.813 26.7773 131.855 28.9287C131.863 32.3493 131.848 35.7666 131.851 39.1832C131.829 39.6503 131.923 40.086 132.142 40.4925C132.715 40.8796 133.827 40.7583 133.8 39.8402C133.891 36.4915 133.797 33.1395 133.842 29.7869C133.888 27.9659 134.291 26.0884 135.328 24.6093C136.991 22.1794 140.531 21.7323 142.812 23.3767C144.622 24.8711 144.968 27.5062 144.961 29.7949C144.98 33.1595 144.912 36.5242 144.983 39.8881C144.965 40.9562 146.846 41.0041 146.869 39.9081C147.031 36.822 146.887 33.7152 146.94 30.625Z" fill="white"/>
<path fill-rule="evenodd" clip-rule="evenodd" d="M167.228 36.5189C164.526 38.8846 160.223 38.9586 157.447 36.6978C154.352 34.1848 153.869 29.1692 155.909 25.8037C156.96 24.0647 158.768 22.9093 160.702 22.5593C163.374 22.0182 166.401 22.917 168.103 25.2086C170.49 28.4924 170.221 33.7255 167.228 36.5189ZM161.84 20.4426C158.977 20.3957 156.182 22.0066 154.648 24.508C154.614 23.3525 154.771 22.1778 154.55 21.0377C153.907 20.256 152.474 20.7186 152.627 21.8432C152.571 29.9631 152.586 38.0868 152.62 46.2067C152.346 47.4168 154.105 47.9733 154.603 46.962C154.726 43.3978 154.625 39.822 154.648 36.2545C157.668 41.2772 165.289 41.725 169.192 37.6081C170.906 35.9779 171.538 33.4958 171.763 31.1694C171.819 28.7922 171.512 26.2631 170.102 24.3099C168.335 21.5048 164.982 20.1821 161.84 20.4426Z" fill="white"/>
<path fill-rule="evenodd" clip-rule="evenodd" d="M188.619 29.3828C188.937 27.3106 189.816 25.2266 191.493 23.977C194.453 21.7623 198.987 21.9408 201.582 24.7048C202.786 25.9505 203.405 27.6624 203.696 29.3789C198.67 29.3868 193.645 29.3789 188.619 29.3828ZM201.804 22.1187C199.807 20.7187 197.327 20.2642 194.963 20.4499C191.546 20.7501 188.219 23.1152 187.102 26.5828C186.063 29.628 186.2 33.2304 187.793 36.0421C191.127 42.0292 200.483 42.2587 204.36 36.7778C204.678 35.8087 203.828 35.1646 202.99 35.2431C201.978 36.3468 200.928 37.4892 199.527 38.0313C196.718 39.158 193.218 38.8062 190.945 36.6352C189.492 35.3065 188.824 33.3252 188.555 31.3759C193.705 31.3321 198.856 31.3798 204.006 31.3563C204.625 31.3641 205.459 31.2811 205.58 30.4781C205.867 27.2596 204.398 23.9018 201.804 22.1187Z" fill="white"/>
<path fill-rule="evenodd" clip-rule="evenodd" d="M226.771 38.889C224.375 36.0325 221.878 33.2737 219.451 30.4535C221.805 27.6859 224.236 24.9884 226.558 22.1925C227.475 21.3044 225.971 19.7154 225.167 20.7464C222.756 23.4931 220.441 26.3335 218.072 29.1247C215.907 26.5734 213.759 24.0147 211.606 21.4513C211.15 20.9742 210.71 20.241 209.963 20.4809C209.148 20.6278 209.005 21.8381 209.585 22.3556C211.911 25.1023 214.308 27.7843 216.661 30.502C214.323 33.1066 212.054 35.7758 209.732 38.3958C209.365 38.8527 208.661 39.5414 209.191 40.1485C209.404 40.8817 210.393 40.8736 210.779 40.3156C213.217 37.5117 215.618 34.6753 218.033 31.8471C220.251 34.5123 222.52 37.1323 224.753 39.7813C225.159 40.1889 225.542 40.8453 226.203 40.6701C227.041 40.6903 227.312 39.4349 226.771 38.889Z" fill="white"/>
</svg>
